<?xml version="1.0" standalone="no"?>
<!DOCTYPE svg PUBLIC "-//W3C//DTD SVG 20010904//EN"
 "http://www.w3.org/TR/2001/REC-SVG-20010904/DTD/svg10.dtd">
<svg version="1.0" xmlns="http://www.w3.org/2000/svg"
 width="100.000000pt" height="100.000000pt" viewBox="0 0 100.000000 100.000000"
 preserveAspectRatio="xMidYMid meet">
<metadata>
Created by potrace 1.11, written by Peter Selinger 2001-2013
</metadata>
<g transform="translate(0.000000,100.000000) scale(0.100000,-0.100000)"
fill="#000000" stroke="none">
<path d="M390 896 c-330 -88 -385 -105 -383 -121 2 -28 195 -759 202 -767 6
-7 769 189 783 201 9 8 -195 784 -208 787 -5 1 -182 -44 -394 -100z m18 -382
c-3 -150 -4 -157 -27 -175 -14 -11 -39 -19 -62 -19 -32 0 -39 3 -39 20 0 16 5
19 28 14 53 -9 57 2 60 166 4 142 5 150 24 150 19 0 19 -6 16 -156z m137 37
l42 -115 20 55 c11 30 31 82 43 117 17 47 27 62 42 62 15 0 18 -4 13 -17 -4
-10 -27 -75 -52 -145 -39 -110 -48 -128 -67 -128 -18 0 -29 19 -74 138 -28 76
-52 141 -52 146 0 4 10 6 21 4 17 -2 30 -25 64 -117z"/>
</g>
</svg>
