<?xml version="1.0" standalone="no"?>
<!DOCTYPE svg PUBLIC "-//W3C//DTD SVG 20010904//EN"
 "http://www.w3.org/TR/2001/REC-SVG-20010904/DTD/svg10.dtd">
<svg version="1.0" xmlns="http://www.w3.org/2000/svg"
 width="100.000000pt" height="100.000000pt" viewBox="0 0 100.000000 100.000000"
 preserveAspectRatio="xMidYMid meet">
<metadata>
Created by potrace 1.11, written by Peter Selinger 2001-2013
</metadata>
<g transform="translate(0.000000,100.000000) scale(0.100000,-0.100000)"
fill="#000000" stroke="none">
<path d="M17 982 c-15 -17 -17 -65 -17 -484 0 -438 1 -466 18 -481 27 -24 32
-21 32 18 0 32 2 35 19 25 34 -18 86 -12 109 13 30 32 38 62 62 232 29 214 21
195 84 195 29 0 55 -2 58 -5 7 -7 -48 -374 -61 -409 -7 -16 -21 -42 -32 -57
l-20 -29 141 0 140 0 -5 23 c-6 25 -95 469 -95 474 0 8 120 2 125 -7 5 -8 53
-292 67 -398 2 -14 36 54 97 193 l94 215 58 0 c33 0 59 -4 59 -9 0 -5 -52
-116 -115 -246 -63 -131 -115 -239 -115 -241 0 -2 56 -4 123 -4 107 0 126 2
140 18 15 17 17 65 17 484 0 438 -1 466 -18 481 -17 15 -65 17 -484 17 -438 0
-466 -1 -481 -18z"/>
</g>
</svg>
