<?xml version="1.0" standalone="no"?>
<svg
  width="600"
  height="600"
  viewBox="0 0 600 600"
  xmlns="http://www.w3.org/2000/svg"
>
  <g transform="translate(300,300)">
    <path d="M67.3,-91.6C91,-60.4,116.4,-42.7,124.4,-18.8C132.4,5.2,122.9,35.3,109.1,66.4C95.2,97.5,77,129.6,45.5,153.4C13.9,177.3,-31,193,-83,190.3C-134.9,187.7,-193.9,166.9,-206.4,127.7C-218.8,88.5,-184.7,31,-160.6,-14.8C-136.4,-60.6,-122.2,-94.7,-97.1,-125.6C-72,-156.5,-36,-184.2,-7.1,-175.8C21.9,-167.4,43.7,-122.8,67.3,-91.6Z" fill="#abb8c3" />
  </g>
</svg>
    